# Blender 4.4.1
# www.blender.org
mtllib enemy.mtl
o 敵
v -0.137127 0.068965 -1.000000
v 0.017714 0.187642 -0.980785
v 0.166605 0.301759 -0.923880
v 0.303824 0.406930 -0.831470
v 0.424097 0.499113 -0.707107
v 0.522802 0.574765 -0.555570
v 0.596147 0.630980 -0.382683
v 0.641313 0.665597 -0.195090
v 0.656563 0.677286 0.000000
v 0.641313 0.665597 0.195090
v 0.596147 0.630980 0.382683
v 0.522802 0.574765 0.555570
v 0.424097 0.499113 0.707107
v 0.303824 0.406930 0.831470
v 0.166605 0.301759 0.923880
v 0.017714 0.187642 0.980785
v -0.137127 0.068965 1.000000
v -0.291969 -0.049713 0.980785
v -0.440860 -0.163830 0.923880
v -0.578078 -0.269001 0.831470
v -0.698351 -0.361184 0.707107
v -0.797057 -0.436836 0.555570
v -0.870402 -0.493051 0.382683
v -0.915568 -0.527668 0.195090
v -0.930818 -0.539357 0.000000
v -0.915568 -0.527668 -0.195090
v -0.870402 -0.493051 -0.382683
v -0.797057 -0.436836 -0.555570
v -0.698351 -0.361184 -0.707107
v -0.578078 -0.269001 -0.831470
v -0.440860 -0.163830 -0.923880
v -0.291969 -0.049713 -0.980785
v -1.353770 1.656346 0.000000
v -1.000000 -1.000000 1.000000
v -1.000000 1.000000 1.000000
v -1.000000 -1.000000 -1.000000
v -1.000000 1.000000 -1.000000
v 1.000000 -1.000000 1.000000
v 1.000000 1.000000 1.000000
v 1.000000 -1.000000 -1.000000
v 1.000000 1.000000 -1.000000
v -0.000000 0.086101 -1.000000
v 0.195090 0.086101 -0.980785
v 0.000000 2.086101 0.000000
v -0.195090 0.086101 -0.980785
v -0.382683 0.086101 -0.923880
v -0.555570 0.086101 -0.831470
v -0.707107 0.086101 -0.707107
v -0.831470 0.086101 -0.555570
v -0.923880 0.086101 -0.382683
v -0.980785 0.086101 -0.195090
v -1.000000 0.086101 0.000000
v -0.980785 0.086101 0.195090
v -0.923880 0.086101 0.382683
v -0.831470 0.086101 0.555570
v -0.707107 0.086101 0.707107
v -0.555570 0.086101 0.831470
v -0.382683 0.086101 0.923880
v -0.195090 0.086101 0.980785
v -0.000000 0.086101 1.000000
v 0.195090 0.086101 0.980785
v 0.382684 0.086101 0.923880
v 0.555570 0.086101 0.831470
v 0.707107 0.086101 0.707107
v 0.831470 0.086101 0.555570
v 0.923880 0.086101 0.382683
v 0.980785 0.086101 0.195090
v 1.000000 0.086101 0.000000
v 0.980785 0.086101 -0.195090
v 0.923880 0.086101 -0.382683
v 0.831470 0.086101 -0.555570
v 0.707107 0.086101 -0.707107
v 0.555570 0.086101 -0.831470
v 0.382684 0.086101 -0.923880
v -0.144157 -0.047951 -1.000000
v -0.088794 0.139119 -0.980785
v -2.061934 0.519612 0.000000
v -0.199520 -0.235020 -0.980785
v -0.252755 -0.414901 -0.923880
v -0.301817 -0.580681 -0.831470
v -0.344820 -0.725987 -0.707107
v -0.380112 -0.845238 -0.555570
v -0.406336 -0.933848 -0.382683
v -0.422485 -0.988415 -0.195090
v -0.427938 -1.006839 0.000000
v -0.422485 -0.988415 0.195090
v -0.406336 -0.933848 0.382683
v -0.380112 -0.845238 0.555570
v -0.344820 -0.725987 0.707107
v -0.301817 -0.580681 0.831470
v -0.252755 -0.414901 0.923880
v -0.199520 -0.235020 0.980785
v -0.144157 -0.047951 1.000000
v -0.088794 0.139119 0.980785
v -0.035558 0.319000 0.923880
v 0.013504 0.484780 0.831470
v 0.056507 0.630086 0.707107
v 0.091799 0.749337 0.555570
v 0.118023 0.837947 0.382683
v 0.134172 0.892514 0.195090
v 0.139625 0.910939 0.000000
v 0.134172 0.892514 -0.195090
v 0.118023 0.837947 -0.382683
v 0.091799 0.749337 -0.555570
v 0.056507 0.630086 -0.707107
v 0.013504 0.484780 -0.831470
v -0.035558 0.319000 -0.923880
v 0.054856 -0.013095 -1.000000
v -0.032623 0.161282 -0.980785
v -1.732803 -0.909908 0.000000
v 0.142336 -0.187473 -0.980785
v 0.226454 -0.355149 -0.923880
v 0.303978 -0.509680 -0.831470
v 0.371928 -0.645128 -0.707107
v 0.427693 -0.756287 -0.555570
v 0.469130 -0.838886 -0.382683
v 0.494647 -0.889750 -0.195090
v 0.503263 -0.906925 0.000000
v 0.494647 -0.889750 0.195090
v 0.469130 -0.838886 0.382683
v 0.427693 -0.756287 0.555570
v 0.371928 -0.645128 0.707107
v 0.303978 -0.509680 0.831470
v 0.226454 -0.355149 0.923880
v 0.142336 -0.187473 0.980785
v 0.054856 -0.013095 1.000000
v -0.032623 0.161282 0.980785
v -0.116741 0.328959 0.923880
v -0.194265 0.483490 0.831470
v -0.262215 0.618938 0.707107
v -0.317980 0.730097 0.555570
v -0.359417 0.812696 0.382683
v -0.384934 0.863560 0.195090
v -0.393550 0.880735 0.000000
v -0.384934 0.863560 -0.195090
v -0.359417 0.812696 -0.382683
v -0.317980 0.730097 -0.555570
v -0.262215 0.618938 -0.707107
v -0.194265 0.483490 -0.831470
v -0.116741 0.328959 -0.923880
v 0.896132 -0.338067 0.250000
v 0.896132 -0.338067 -0.250000
v 0.896132 0.461933 0.250000
v 1.196132 -0.338067 0.250000
v 1.196132 -0.338067 -0.250000
v 1.196132 0.461933 0.250000
v 1.196132 0.461933 -0.250000
v 0.896132 0.461933 -0.250000
v 0.789725 0.337173 -0.458838
v 0.789725 0.337173 -0.758838
v 0.789726 0.637173 -0.458838
v 1.089725 0.337173 -0.458838
v 1.089725 0.337173 -0.758838
v 1.089725 0.637173 -0.458838
v 1.089725 0.637173 -0.758838
v 0.789726 0.637173 -0.758838
v 0.789725 0.337173 0.735230
v 0.789725 0.337173 0.435230
v 0.789726 0.637173 0.735230
v 1.089725 0.337173 0.735230
v 1.089725 0.337173 0.435230
v 1.089725 0.637173 0.735230
v 1.089725 0.637173 0.435230
v 0.789726 0.637173 0.435230
vn -0.2014 0.4070 -0.8910
vn -0.0647 0.5117 -0.8567
vn 0.0640 0.6103 -0.7896
vn 0.1798 0.6991 -0.6921
vn 0.2783 0.7746 -0.5680
vn 0.3557 0.8339 -0.4220
vn 0.4090 0.8748 -0.2599
vn 0.4362 0.8956 -0.0878
vn 0.4362 0.8956 0.0878
vn 0.4090 0.8748 0.2599
vn 0.3557 0.8339 0.4220
vn 0.2783 0.7746 0.5680
vn 0.1798 0.6991 0.6921
vn 0.0640 0.6103 0.7896
vn -0.0647 0.5117 0.8567
vn -0.2014 0.4070 0.8910
vn -0.3406 0.3002 0.8910
vn -0.4773 0.1955 0.8567
vn -0.6060 0.0968 0.7896
vn -0.7218 0.0081 0.6921
vn -0.8203 -0.0674 0.5680
vn -0.8977 -0.1267 0.4220
vn -0.9510 -0.1676 0.2599
vn -0.9782 -0.1884 0.0878
vn -0.9782 -0.1884 -0.0878
vn -0.9510 -0.1676 -0.2599
vn -0.8977 -0.1267 -0.4220
vn -0.8203 -0.0674 -0.5680
vn -0.7218 0.0081 -0.6921
vn -0.6060 0.0968 -0.7896
vn 0.6083 -0.7937 -0.0000
vn -0.4773 0.1955 -0.8567
vn -0.3406 0.3002 -0.8910
vn -1.0000 -0.0000 -0.0000
vn -0.0000 -0.0000 -1.0000
vn 1.0000 -0.0000 -0.0000
vn -0.0000 -0.0000 1.0000
vn -0.0000 -1.0000 -0.0000
vn -0.0000 1.0000 -0.0000
vn 0.0878 0.4455 -0.8910
vn -0.0878 0.4455 -0.8910
vn -0.2599 0.4455 -0.8567
vn -0.4220 0.4455 -0.7896
vn -0.5680 0.4455 -0.6921
vn -0.6921 0.4455 -0.5680
vn -0.7896 0.4455 -0.4220
vn -0.8567 0.4455 -0.2599
vn -0.8910 0.4455 -0.0878
vn -0.8910 0.4455 0.0878
vn -0.8567 0.4455 0.2599
vn -0.7896 0.4455 0.4220
vn -0.6921 0.4455 0.5680
vn -0.5680 0.4455 0.6921
vn -0.4220 0.4455 0.7896
vn -0.2599 0.4455 0.8567
vn -0.0878 0.4455 0.8910
vn 0.0878 0.4455 0.8910
vn 0.2599 0.4455 0.8567
vn 0.4220 0.4455 0.7896
vn 0.5680 0.4455 0.6921
vn 0.6921 0.4455 0.5680
vn 0.7896 0.4455 0.4220
vn 0.8567 0.4455 0.2599
vn 0.8910 0.4455 0.0878
vn 0.8910 0.4455 -0.0878
vn 0.8567 0.4455 -0.2599
vn 0.7896 0.4455 -0.4220
vn 0.6921 0.4455 -0.5680
vn 0.5680 0.4455 -0.6921
vn 0.4220 0.4455 -0.7896
vn 0.2599 0.4455 -0.8567
vn 0.9589 -0.2838 -0.0000
vn -0.4023 0.2106 -0.8910
vn -0.4521 0.0423 -0.8910
vn -0.5009 -0.1228 -0.8567
vn -0.5469 -0.2783 -0.7896
vn -0.5884 -0.4182 -0.6921
vn -0.6236 -0.5372 -0.5680
vn -0.6512 -0.6307 -0.4220
vn -0.6703 -0.6951 -0.2599
vn -0.6800 -0.7279 -0.0878
vn -0.6800 -0.7279 0.0878
vn -0.6703 -0.6951 0.2599
vn -0.6512 -0.6307 0.4220
vn -0.6236 -0.5372 0.5680
vn -0.5884 -0.4182 0.6921
vn -0.5469 -0.2783 0.7896
vn -0.5009 -0.1228 0.8567
vn -0.4521 0.0423 0.8910
vn -0.4023 0.2106 0.8910
vn -0.3534 0.3756 0.8567
vn -0.3074 0.5311 0.7896
vn -0.2660 0.6710 0.6921
vn -0.2308 0.7900 0.5680
vn -0.2031 0.8835 0.4220
vn -0.1840 0.9479 0.2599
vn -0.1743 0.9808 0.0878
vn -0.1743 0.9808 -0.0878
vn -0.1840 0.9479 -0.2599
vn -0.2031 0.8835 -0.4220
vn -0.2308 0.7900 -0.5680
vn -0.2660 0.6710 -0.6921
vn -0.3074 0.5311 -0.7896
vn -0.3534 0.3756 -0.8567
vn 0.8938 0.4484 -0.0000
vn -0.4375 -0.1213 -0.8910
vn -0.3588 -0.2782 -0.8910
vn -0.2817 -0.4321 -0.8567
vn -0.2089 -0.5770 -0.7896
vn -0.1435 -0.7074 -0.6921
vn -0.0879 -0.8184 -0.5680
vn -0.0441 -0.9055 -0.4220
vn -0.0140 -0.9655 -0.2599
vn 0.0013 -0.9961 -0.0878
vn 0.0013 -0.9961 0.0878
vn -0.0140 -0.9655 0.2599
vn -0.0441 -0.9055 0.4220
vn -0.0879 -0.8184 0.5680
vn -0.1435 -0.7074 0.6921
vn -0.2089 -0.5770 0.7896
vn -0.2817 -0.4321 0.8567
vn -0.3588 -0.2782 0.8910
vn -0.4375 -0.1213 0.8910
vn -0.5147 0.0325 0.8567
vn -0.5874 0.1775 0.7896
vn -0.6529 0.3079 0.6921
vn -0.7085 0.4188 0.5680
vn -0.7522 0.5060 0.4220
vn -0.7824 0.5660 0.2599
vn -0.7977 0.5966 0.0878
vn -0.7977 0.5966 -0.0878
vn -0.7824 0.5660 -0.2599
vn -0.7522 0.5060 -0.4220
vn -0.7085 0.4188 -0.5680
vn -0.6529 0.3079 -0.6921
vn -0.5874 0.1775 -0.7896
vn -0.5147 0.0325 -0.8567
vt 0.349755 0.768197
vt 0.461751 0.828060
vt 0.340228 0.791197
vt 0.335371 0.815613
vt 0.335371 0.840508
vt 0.340228 0.864924
vt 0.349755 0.887923
vt 0.363586 0.908622
vt 0.381189 0.926225
vt 0.401888 0.940056
vt 0.424887 0.949583
vt 0.449304 0.954440
vt 0.474198 0.954440
vt 0.498614 0.949583
vt 0.521614 0.940056
vt 0.542313 0.926226
vt 0.559916 0.908622
vt 0.573747 0.887923
vt 0.583273 0.864924
vt 0.588130 0.840508
vt 0.588130 0.815613
vt 0.583273 0.791197
vt 0.573747 0.768197
vt 0.559916 0.747498
vt 0.542313 0.729895
vt 0.521614 0.716064
vt 0.498614 0.706538
vt 0.474198 0.701681
vt 0.449304 0.701681
vt 0.424887 0.706538
vt 0.401888 0.716064
vt 0.381189 0.729895
vt 0.738555 0.173554
vt 0.853262 0.138758
vt 0.818466 0.024051
vt 0.363586 0.747498
vt 0.691079 0.352046
vt 0.521561 0.182524
vt 0.691081 0.182526
vt 0.352039 0.352041
vt 0.352041 0.182522
vt 0.182521 0.182519
vt 0.182519 0.352039
vt 0.013002 0.182517
vt 0.182523 0.013000
vt 0.352043 0.013002
vt 0.352037 0.521561
vt 0.090495 0.964615
vt 0.183155 0.888571
vt 0.107111 0.795911
vt 0.608855 0.697584
vt 0.730378 0.734448
vt 0.603998 0.722001
vt 0.618382 0.674585
vt 0.632213 0.653886
vt 0.649816 0.636283
vt 0.670515 0.622452
vt 0.693514 0.612925
vt 0.717930 0.608068
vt 0.742825 0.608069
vt 0.767241 0.612925
vt 0.790241 0.622452
vt 0.810940 0.636283
vt 0.828543 0.653886
vt 0.842374 0.674585
vt 0.851900 0.697584
vt 0.856757 0.722000
vt 0.856757 0.746895
vt 0.851900 0.771311
vt 0.842374 0.794311
vt 0.828543 0.815010
vt 0.810940 0.832613
vt 0.790241 0.846444
vt 0.767241 0.855970
vt 0.742825 0.860827
vt 0.717930 0.860827
vt 0.693514 0.855971
vt 0.670515 0.846444
vt 0.649816 0.832613
vt 0.632212 0.815010
vt 0.618382 0.794311
vt 0.608855 0.771311
vt 0.603998 0.746895
vt 0.821538 0.228862
vt 0.878044 0.334577
vt 0.983759 0.278072
vt 0.438324 0.492628
vt 0.564703 0.505077
vt 0.438324 0.517523
vt 0.443181 0.468212
vt 0.452708 0.445213
vt 0.466539 0.424514
vt 0.484142 0.406911
vt 0.504842 0.393081
vt 0.527841 0.383554
vt 0.552257 0.378698
vt 0.577152 0.378698
vt 0.601568 0.383555
vt 0.624568 0.393082
vt 0.645267 0.406913
vt 0.662869 0.424516
vt 0.676700 0.445216
vt 0.686226 0.468215
vt 0.691083 0.492631
vt 0.691082 0.517526
vt 0.686225 0.541942
vt 0.676698 0.564942
vt 0.662867 0.585641
vt 0.645264 0.603243
vt 0.624565 0.617074
vt 0.601565 0.626600
vt 0.577149 0.631457
vt 0.552254 0.631456
vt 0.527838 0.626599
vt 0.504839 0.617072
vt 0.484140 0.603242
vt 0.466537 0.585638
vt 0.452707 0.564939
vt 0.443180 0.541939
vt 0.875901 0.403877
vt 0.770186 0.347371
vt 0.713681 0.453086
vt 0.322832 0.754976
vt 0.224667 0.674414
vt 0.336663 0.734277
vt 0.305229 0.772579
vt 0.284530 0.786410
vt 0.261531 0.795936
vt 0.237114 0.800793
vt 0.212220 0.800793
vt 0.187804 0.795936
vt 0.164804 0.786410
vt 0.144105 0.772579
vt 0.126502 0.754976
vt 0.112671 0.734277
vt 0.103144 0.711277
vt 0.098288 0.686861
vt 0.098288 0.661966
vt 0.103145 0.637550
vt 0.112671 0.614551
vt 0.126502 0.593852
vt 0.144105 0.576248
vt 0.164804 0.562418
vt 0.187804 0.552891
vt 0.212220 0.548034
vt 0.237114 0.548034
vt 0.261531 0.552891
vt 0.284530 0.562418
vt 0.305229 0.576248
vt 0.322832 0.593852
vt 0.336663 0.614551
vt 0.346190 0.637550
vt 0.351047 0.661966
vt 0.351046 0.686861
vt 0.346190 0.711277
vt 0.057498 0.466543
vt 0.014002 0.510039
vt 0.014002 0.466543
vt 0.100993 0.379553
vt 0.057498 0.423048
vt 0.057498 0.379553
vt 0.057498 0.510039
vt 0.100993 0.553534
vt 0.057498 0.553534
vt 0.100993 0.466543
vt 0.144489 0.466543
vt 0.100993 0.510039
vt 0.100993 0.423048
vt 0.404996 0.065142
vt 0.379568 0.090570
vt 0.379568 0.065142
vt 0.430424 0.014286
vt 0.404996 0.039714
vt 0.404996 0.014286
vt 0.430424 0.090570
vt 0.404996 0.115998
vt 0.404996 0.090570
vt 0.430424 0.065142
vt 0.455852 0.065142
vt 0.430424 0.039714
vt 0.038686 0.067177
vt 0.013258 0.092605
vt 0.013258 0.067177
vt 0.064114 0.016321
vt 0.038686 0.041749
vt 0.038686 0.016321
vt 0.064114 0.092605
vt 0.038686 0.118033
vt 0.038686 0.092605
vt 0.064114 0.067177
vt 0.089542 0.067177
vt 0.064114 0.041749
vt 0.803115 0.017693
vt 0.786818 0.014451
vt 0.770202 0.014451
vt 0.753906 0.017693
vt 0.738555 0.024051
vt 0.724739 0.033283
vt 0.712990 0.045032
vt 0.703759 0.058847
vt 0.697400 0.074198
vt 0.694159 0.090495
vt 0.694159 0.107111
vt 0.697400 0.123407
vt 0.703759 0.138758
vt 0.712990 0.152574
vt 0.724739 0.164323
vt 0.753906 0.179913
vt 0.770202 0.183155
vt 0.786818 0.183155
vt 0.803115 0.179913
vt 0.818466 0.173555
vt 0.832282 0.164323
vt 0.844031 0.152574
vt 0.859621 0.123407
vt 0.862862 0.107111
vt 0.862862 0.090495
vt 0.859621 0.074198
vt 0.853262 0.058847
vt 0.844031 0.045032
vt 0.832282 0.033283
vt 0.521559 0.352043
vt 0.013000 0.352037
vt 0.182517 0.521559
vt 0.090495 0.795911
vt 0.074198 0.799153
vt 0.058847 0.805511
vt 0.045032 0.814743
vt 0.033283 0.826492
vt 0.014451 0.871955
vt 0.024051 0.840307
vt 0.017693 0.855659
vt 0.014451 0.888571
vt 0.017693 0.904868
vt 0.024051 0.920218
vt 0.033283 0.934034
vt 0.045032 0.945783
vt 0.058847 0.955015
vt 0.074198 0.961373
vt 0.107111 0.964615
vt 0.123407 0.961373
vt 0.138758 0.955015
vt 0.152574 0.945783
vt 0.164323 0.934034
vt 0.173555 0.920219
vt 0.179913 0.904868
vt 0.183155 0.871955
vt 0.179913 0.855659
vt 0.173555 0.840308
vt 0.164323 0.826492
vt 0.152574 0.814743
vt 0.138758 0.805512
vt 0.123408 0.799153
vt 0.987000 0.261775
vt 0.987000 0.245159
vt 0.983759 0.228862
vt 0.977400 0.213511
vt 0.968169 0.199696
vt 0.956420 0.187947
vt 0.942604 0.178715
vt 0.927253 0.172357
vt 0.910956 0.169115
vt 0.894341 0.169115
vt 0.878044 0.172357
vt 0.862693 0.178715
vt 0.848877 0.187947
vt 0.837128 0.199696
vt 0.827897 0.213511
vt 0.818297 0.245159
vt 0.818297 0.261775
vt 0.821538 0.278071
vt 0.827897 0.293422
vt 0.837128 0.307238
vt 0.848877 0.318987
vt 0.862693 0.328219
vt 0.894341 0.337819
vt 0.942604 0.328219
vt 0.910956 0.337819
vt 0.927253 0.334577
vt 0.956420 0.318987
vt 0.968169 0.307238
vt 0.977400 0.293422
vt 0.869543 0.388526
vt 0.860311 0.374710
vt 0.848562 0.362961
vt 0.834747 0.353730
vt 0.819396 0.347371
vt 0.803099 0.344130
vt 0.786483 0.344130
vt 0.754835 0.353730
vt 0.741020 0.362961
vt 0.729271 0.374710
vt 0.720039 0.388526
vt 0.713681 0.403877
vt 0.710439 0.420173
vt 0.710439 0.436789
vt 0.720039 0.468437
vt 0.729270 0.482252
vt 0.741020 0.494002
vt 0.754835 0.503233
vt 0.770186 0.509592
vt 0.786483 0.512833
vt 0.803099 0.512833
vt 0.819395 0.509592
vt 0.834746 0.503233
vt 0.848562 0.494002
vt 0.860311 0.482253
vt 0.869542 0.468437
vt 0.875901 0.453086
vt 0.879143 0.436789
vt 0.879143 0.420174
vt 0.144489 0.510039
vt 0.430424 0.115998
vt 0.455852 0.090570
vt 0.064114 0.118033
vt 0.089542 0.092605
s 0
usemtl マテリアル
f 1/1/1 33/2/1 2/3/1
f 2/3/2 33/2/2 3/4/2
f 3/4/3 33/2/3 4/5/3
f 4/5/4 33/2/4 5/6/4
f 5/6/5 33/2/5 6/7/5
f 6/7/6 33/2/6 7/8/6
f 7/8/7 33/2/7 8/9/7
f 8/9/8 33/2/8 9/10/8
f 9/10/9 33/2/9 10/11/9
f 10/11/10 33/2/10 11/12/10
f 11/12/11 33/2/11 12/13/11
f 12/13/12 33/2/12 13/14/12
f 13/14/13 33/2/13 14/15/13
f 14/15/14 33/2/14 15/16/14
f 15/16/15 33/2/15 16/17/15
f 16/17/16 33/2/16 17/18/16
f 17/18/17 33/2/17 18/19/17
f 18/19/18 33/2/18 19/20/18
f 19/20/19 33/2/19 20/21/19
f 20/21/20 33/2/20 21/22/20
f 21/22/21 33/2/21 22/23/21
f 22/23/22 33/2/22 23/24/22
f 23/24/23 33/2/23 24/25/23
f 24/25/24 33/2/24 25/26/24
f 25/26/25 33/2/25 26/27/25
f 26/27/26 33/2/26 27/28/26
f 27/28/27 33/2/27 28/29/27
f 28/29/28 33/2/28 29/30/28
f 29/30/29 33/2/29 30/31/29
f 30/31/30 33/2/30 31/32/30
f 16/33/31 24/34/31 32/35/31
f 31/32/32 33/2/32 32/36/32
f 32/36/33 33/2/33 1/1/33
f 35/37/34 36/38/34 34/39/34
f 36/38/35 41/40/35 40/41/35
f 41/40/36 38/42/36 40/41/36
f 39/43/37 34/44/37 38/42/37
f 40/41/38 34/45/38 36/46/38
f 37/47/39 39/43/39 41/40/39
f 61/48/38 53/49/38 45/50/38
f 42/51/40 44/52/40 43/53/40
f 45/54/41 44/52/41 42/51/41
f 46/55/42 44/52/42 45/54/42
f 47/56/43 44/52/43 46/55/43
f 48/57/44 44/52/44 47/56/44
f 49/58/45 44/52/45 48/57/45
f 50/59/46 44/52/46 49/58/46
f 51/60/47 44/52/47 50/59/47
f 52/61/48 44/52/48 51/60/48
f 53/62/49 44/52/49 52/61/49
f 54/63/50 44/52/50 53/62/50
f 55/64/51 44/52/51 54/63/51
f 56/65/52 44/52/52 55/64/52
f 57/66/53 44/52/53 56/65/53
f 58/67/54 44/52/54 57/66/54
f 59/68/55 44/52/55 58/67/55
f 60/69/56 44/52/56 59/68/56
f 61/70/57 44/52/57 60/69/57
f 62/71/58 44/52/58 61/70/58
f 63/72/59 44/52/59 62/71/59
f 64/73/60 44/52/60 63/72/60
f 65/74/61 44/52/61 64/73/61
f 66/75/62 44/52/62 65/74/62
f 67/76/63 44/52/63 66/75/63
f 68/77/64 44/52/64 67/76/64
f 69/78/65 44/52/65 68/77/65
f 70/79/66 44/52/66 69/78/66
f 71/80/67 44/52/67 70/79/67
f 72/81/68 44/52/68 71/80/68
f 73/82/69 44/52/69 72/81/69
f 74/83/70 44/52/70 73/82/70
f 43/53/71 44/52/71 74/83/71
f 94/84/72 86/85/72 78/86/72
f 75/87/73 77/88/73 76/89/73
f 78/90/74 77/88/74 75/87/74
f 79/91/75 77/88/75 78/90/75
f 80/92/76 77/88/76 79/91/76
f 81/93/77 77/88/77 80/92/77
f 82/94/78 77/88/78 81/93/78
f 83/95/79 77/88/79 82/94/79
f 84/96/80 77/88/80 83/95/80
f 85/97/81 77/88/81 84/96/81
f 86/98/82 77/88/82 85/97/82
f 87/99/83 77/88/83 86/98/83
f 88/100/84 77/88/84 87/99/84
f 89/101/85 77/88/85 88/100/85
f 90/102/86 77/88/86 89/101/86
f 91/103/87 77/88/87 90/102/87
f 92/104/88 77/88/88 91/103/88
f 93/105/89 77/88/89 92/104/89
f 94/106/90 77/88/90 93/105/90
f 95/107/91 77/88/91 94/106/91
f 96/108/92 77/88/92 95/107/92
f 97/109/93 77/88/93 96/108/93
f 98/110/94 77/88/94 97/109/94
f 99/111/95 77/88/95 98/110/95
f 100/112/96 77/88/96 99/111/96
f 101/113/97 77/88/97 100/112/97
f 102/114/98 77/88/98 101/113/98
f 103/115/99 77/88/99 102/114/99
f 104/116/100 77/88/100 103/115/100
f 105/117/101 77/88/101 104/116/101
f 106/118/102 77/88/102 105/117/102
f 107/119/103 77/88/103 106/118/103
f 76/89/104 77/88/104 107/119/104
f 111/120/105 135/121/105 127/122/105
f 108/123/106 110/124/106 109/125/106
f 111/126/107 110/124/107 108/123/107
f 112/127/108 110/124/108 111/126/108
f 113/128/109 110/124/109 112/127/109
f 114/129/110 110/124/110 113/128/110
f 115/130/111 110/124/111 114/129/111
f 116/131/112 110/124/112 115/130/112
f 117/132/113 110/124/113 116/131/113
f 118/133/114 110/124/114 117/132/114
f 119/134/115 110/124/115 118/133/115
f 120/135/116 110/124/116 119/134/116
f 121/136/117 110/124/117 120/135/117
f 122/137/118 110/124/118 121/136/118
f 123/138/119 110/124/119 122/137/119
f 124/139/120 110/124/120 123/138/120
f 125/140/121 110/124/121 124/139/121
f 126/141/122 110/124/122 125/140/122
f 127/142/123 110/124/123 126/141/123
f 128/143/124 110/124/124 127/142/124
f 129/144/125 110/124/125 128/143/125
f 130/145/126 110/124/126 129/144/126
f 131/146/127 110/124/127 130/145/127
f 132/147/128 110/124/128 131/146/128
f 133/148/129 110/124/129 132/147/129
f 134/149/130 110/124/130 133/148/130
f 135/150/131 110/124/131 134/149/131
f 136/151/132 110/124/132 135/150/132
f 137/152/133 110/124/133 136/151/133
f 138/153/134 110/124/134 137/152/134
f 139/154/135 110/124/135 138/153/135
f 140/155/136 110/124/136 139/154/136
f 109/125/137 110/124/137 140/155/137
f 145/156/38 141/157/38 142/158/38
f 143/159/34 142/160/34 141/161/34
f 144/162/37 143/163/37 141/164/37
f 147/165/36 144/162/36 145/156/36
f 148/166/39 146/167/39 147/165/39
f 148/168/35 145/156/35 142/160/35
f 153/169/38 149/170/38 150/171/38
f 151/172/34 150/173/34 149/174/34
f 154/175/37 149/176/37 152/177/37
f 155/178/36 152/177/36 153/169/36
f 156/179/39 154/175/39 155/178/39
f 156/180/35 153/169/35 150/173/35
f 161/181/38 157/182/38 158/183/38
f 159/184/34 158/185/34 157/186/34
f 162/187/37 157/188/37 160/189/37
f 163/190/36 160/189/36 161/181/36
f 164/191/39 162/187/39 163/190/39
f 164/192/35 161/181/35 158/185/35
f 32/35/31 1/193/31 2/194/31
f 2/194/31 3/195/31 4/196/31
f 4/196/31 5/197/31 6/198/31
f 6/198/31 7/199/31 8/200/31
f 8/200/31 9/201/31 10/202/31
f 10/202/31 11/203/31 12/204/31
f 12/204/31 13/205/31 14/206/31
f 14/206/31 15/207/31 16/33/31
f 16/33/31 17/208/31 18/209/31
f 18/209/31 19/210/31 20/211/31
f 20/211/31 21/212/31 22/213/31
f 22/213/31 23/214/31 24/34/31
f 24/34/31 25/215/31 26/216/31
f 26/216/31 27/217/31 28/218/31
f 28/218/31 29/219/31 30/220/31
f 30/220/31 31/221/31 32/35/31
f 32/35/31 2/194/31 8/200/31
f 2/194/31 4/196/31 8/200/31
f 4/196/31 6/198/31 8/200/31
f 8/200/31 10/202/31 16/33/31
f 10/202/31 12/204/31 16/33/31
f 12/204/31 14/206/31 16/33/31
f 16/33/31 18/209/31 24/34/31
f 18/209/31 20/211/31 24/34/31
f 20/211/31 22/213/31 24/34/31
f 24/34/31 26/216/31 32/35/31
f 26/216/31 28/218/31 32/35/31
f 28/218/31 30/220/31 32/35/31
f 32/35/31 8/200/31 16/33/31
f 35/37/34 37/222/34 36/38/34
f 36/38/35 37/222/35 41/40/35
f 41/40/36 39/43/36 38/42/36
f 39/43/37 35/223/37 34/44/37
f 40/41/38 38/42/38 34/45/38
f 37/47/39 35/224/39 39/43/39
f 45/50/38 42/225/38 43/226/38
f 43/226/38 74/227/38 73/228/38
f 73/228/38 72/229/38 69/230/38
f 72/229/38 71/231/38 69/230/38
f 71/231/38 70/232/38 69/230/38
f 69/230/38 68/233/38 67/234/38
f 67/234/38 66/235/38 65/236/38
f 65/236/38 64/237/38 61/48/38
f 64/237/38 63/238/38 61/48/38
f 63/238/38 62/239/38 61/48/38
f 61/48/38 60/240/38 59/241/38
f 59/241/38 58/242/38 57/243/38
f 57/243/38 56/244/38 55/245/38
f 55/245/38 54/246/38 53/49/38
f 53/49/38 52/247/38 51/248/38
f 51/248/38 50/249/38 49/250/38
f 49/250/38 48/251/38 47/252/38
f 47/252/38 46/253/38 45/50/38
f 45/50/38 43/226/38 69/230/38
f 43/226/38 73/228/38 69/230/38
f 69/230/38 67/234/38 61/48/38
f 67/234/38 65/236/38 61/48/38
f 61/48/38 59/241/38 53/49/38
f 59/241/38 57/243/38 53/49/38
f 57/243/38 55/245/38 53/49/38
f 53/49/38 51/248/38 45/50/38
f 51/248/38 49/250/38 45/50/38
f 49/250/38 47/252/38 45/50/38
f 45/50/38 69/230/38 61/48/38
f 78/86/72 75/254/72 76/255/72
f 76/255/72 107/256/72 106/257/72
f 106/257/72 105/258/72 104/259/72
f 104/259/72 103/260/72 102/261/72
f 102/261/72 101/262/72 100/263/72
f 100/263/72 99/264/72 98/265/72
f 98/265/72 97/266/72 94/84/72
f 97/266/72 96/267/72 94/84/72
f 96/267/72 95/268/72 94/84/72
f 94/84/72 93/269/72 92/270/72
f 92/270/72 91/271/72 90/272/72
f 90/272/72 89/273/72 86/85/72
f 89/273/72 88/274/72 86/85/72
f 88/274/72 87/275/72 86/85/72
f 86/85/72 85/276/72 82/277/72
f 85/276/72 84/278/72 82/277/72
f 84/278/72 83/279/72 82/277/72
f 82/277/72 81/280/72 78/86/72
f 81/280/72 80/281/72 78/86/72
f 80/281/72 79/282/72 78/86/72
f 78/86/72 76/255/72 106/257/72
f 106/257/72 104/259/72 78/86/72
f 104/259/72 102/261/72 78/86/72
f 102/261/72 100/263/72 94/84/72
f 100/263/72 98/265/72 94/84/72
f 94/84/72 92/270/72 86/85/72
f 92/270/72 90/272/72 86/85/72
f 86/85/72 82/277/72 78/86/72
f 78/86/72 102/261/72 94/84/72
f 111/120/105 108/283/105 109/284/105
f 109/284/105 140/285/105 139/286/105
f 139/286/105 138/287/105 137/288/105
f 137/288/105 136/289/105 135/121/105
f 135/121/105 134/290/105 133/291/105
f 133/291/105 132/292/105 131/293/105
f 131/293/105 130/294/105 127/122/105
f 130/294/105 129/295/105 127/122/105
f 129/295/105 128/296/105 127/122/105
f 127/122/105 126/297/105 125/298/105
f 125/298/105 124/299/105 123/300/105
f 123/300/105 122/301/105 121/302/105
f 121/302/105 120/303/105 119/304/105
f 119/304/105 118/305/105 117/306/105
f 117/306/105 116/307/105 119/304/105
f 116/307/105 115/308/105 119/304/105
f 115/308/105 114/309/105 113/310/105
f 113/310/105 112/311/105 115/308/105
f 112/311/105 111/120/105 115/308/105
f 111/120/105 109/284/105 139/286/105
f 139/286/105 137/288/105 135/121/105
f 135/121/105 133/291/105 131/293/105
f 127/122/105 125/298/105 123/300/105
f 123/300/105 121/302/105 127/122/105
f 121/302/105 119/304/105 127/122/105
f 111/120/105 139/286/105 135/121/105
f 135/121/105 131/293/105 127/122/105
f 119/304/105 115/308/105 127/122/105
f 115/308/105 111/120/105 127/122/105
f 145/156/38 144/162/38 141/157/38
f 143/159/34 148/168/34 142/160/34
f 144/162/37 146/167/37 143/163/37
f 147/165/36 146/167/36 144/162/36
f 148/166/39 143/312/39 146/167/39
f 148/168/35 147/165/35 145/156/35
f 153/169/38 152/177/38 149/170/38
f 151/172/34 156/180/34 150/173/34
f 154/175/37 151/313/37 149/176/37
f 155/178/36 154/175/36 152/177/36
f 156/179/39 151/314/39 154/175/39
f 156/180/35 155/178/35 153/169/35
f 161/181/38 160/189/38 157/182/38
f 159/184/34 164/192/34 158/185/34
f 162/187/37 159/315/37 157/188/37
f 163/190/36 162/187/36 160/189/36
f 164/191/39 159/316/39 162/187/39
f 164/192/35 163/190/35 161/181/35
